<svg xmlns="http://www.w3.org/2000/svg" xml:space="preserve" width="1071.999" height="450.225"><path d="m1070.949 249.894-27.386-54.958a10 10 0 0 0-12.879-4.736l-27.849 11.896c-3.383-7.177-10.578-11.567-18.794-11.188-9.327.448-16.788 6.908-18.564 16.075-1.084 5.594-1.798 11.747-2.488 17.696-1.299 11.194-2.77 23.881-6.74 30.234-4.405 7.045-6.244 15.52-6.668 23.933-16.053 16.65-44.004 22.562-58.94 20.302-6.903-1.044-16.146-2.957-25.93-4.98-7.358-1.524-15.27-3.16-23.364-4.68 18.96-32.719 18.878-73.83-1.345-106.784l-6.544-10.66c.567-.914 1.133-1.828 1.71-2.75 18.814-30.117 25.632-65.932 19.2-100.844-.259-1.408-.698-3.098-1.343-5.164C841.923 27.72 809.281 2.65 771.8.901L754.537.096c-37.313-1.733-72.075 20.035-86.525 54.182-15.003 35.454-12.595 75.897 6.306 108.996-8.624 15.4-17.979 40.42-19.928 78.167-2.653 51.363 9.132 112.694 35.028 182.291.097.261.205.52.324.771 4.844 10.293 13.767 17.478 26.521 21.356 7.714 2.345 16.348 3.304 25.313 3.304 19.601 0 40.778-4.585 57.342-9.289 29.76-8.45 61.188-21.917 86.227-36.945 57.984-34.787 135.369-77.034 136.144-77.457a9.999 9.999 0 0 0 3.289-2.883l45.5-62.34a10.003 10.003 0 0 0 .871-10.355zm-61.21 59.1C997.24 315.838 928 353.894 874.852 385.78c-46.673 28.014-119.197 51.153-152.772 40.943-7.055-2.145-11.666-5.55-14.08-10.403-49.073-132.134-34.79-203.024-20.338-235.1a158.408 158.408 0 0 1 5.785 7.723c3.17 4.523 9.405 5.62 13.928 2.451 4.523-3.169 5.62-9.405 2.451-13.928a178.728 178.728 0 0 0-10.229-13.229c-4.038-4.744-5.64-7.076-6.235-8.044-17.345-28.203-19.937-63.387-6.932-94.12 11.202-26.47 38.212-43.35 67.175-41.997l17.263.805c29.115 1.358 54.458 20.794 63.065 48.364.54 1.73.714 2.55.765 2.825 5.526 29.992-.33 60.756-16.492 86.626-6.679 10.69-12.735 20.82-18.002 30.104-2.725 4.804-1.04 10.907 3.764 13.632a9.998 9.998 0 0 0 13.633-3.764 674.951 674.951 0 0 1 4.23-7.34l1.127 1.838c17.705 28.85 16.295 65.432-3.078 92.75-11.297-1.584-22.33-2.56-32.112-2.299-5.52.147-9.877 4.742-9.73 10.263.147 5.521 4.76 9.887 10.263 9.73 20.673-.56 49.336 5.377 72.357 10.142 10.493 2.172 19.555 4.047 26.992 5.172 2.83.428 6.01.653 9.45.653 15.812 0 37.066-4.763 54.464-16.47 1.447 7.466 3.196 12.958 3.677 14.4 1.396 4.187 5.294 6.834 9.48 6.834a10.01 10.01 0 0 0 3.154-.513c5.237-1.739 8.074-7.396 6.342-12.636-.026-.082-2.729-8.326-4.03-18.48-1.534-11.968-.462-21.627 3.021-27.198 6.358-10.174 8.03-24.589 9.647-38.529.648-5.584 1.262-10.873 2.138-15.567 7.687 26.972.627 60.464.555 60.802-1.168 5.394 2.255 10.714 7.65 11.887 5.395 1.17 10.722-2.25 11.895-7.647.108-.499.972-4.56 1.813-10.885l18.951-14.47c4.39-3.352 5.231-9.627 1.88-14.017-3.352-4.388-9.626-5.232-14.017-1.879l-5.147 3.93c-.053-5.543-.389-11.372-1.145-17.254l22.442-9.586 20.467 41.074z" style="fill:#4169e1"/><g aria-label="PKCI" style="font-style:normal;font-variant:normal;font-weight:700;font-stretch:normal;font-size:276.64880371px;line-height:1.25;font-family:'JetBrains Mono';-inkscape-font-specification:'JetBrains Mono, Bold';font-variant-ligatures:normal;font-variant-caps:normal;font-variant-numeric:normal;font-feature-settings:normal;text-align:start;letter-spacing:0;word-spacing:0;writing-mode:lr-tb;text-anchor:start;fill:#4169e1;fill-opacity:1;stroke:none;stroke-width:7.93867016"><path d="M69.803 3.124q14.94 0 27.112 4.426 12.449 4.15 21.025 12.173 8.576 7.746 13.28 19.088 4.702 11.066 4.702 24.899 0 13.556-4.703 24.898-4.703 11.066-13.556 19.089-8.576 7.746-20.748 12.172-12.173 4.15-27.112 4.15H35.5v78.292H.918V3.124ZM35.5 94.694h34.304q14.386 0 22.685-8.299 8.3-8.576 8.3-22.685 0-14.11-8.3-22.685-8.299-8.577-22.685-8.577H35.5ZM202.04 3.124v80.781h25.453L265.67 3.124h38.454l-46.2 95.444 48.414 103.743H267.33l-39.837-87.145H202.04v87.145h-34.858V3.124ZM396.801 205.077q-14.939 0-27.111-4.15-12.173-4.426-20.749-12.449-8.576-8.022-13.28-19.365-4.702-11.343-4.702-25.175V61.497q0-13.833 4.703-25.175 4.703-11.343 13.279-19.366T369.69 4.784Q381.862.357 396.8.357q14.663 0 26.282 4.15 11.896 4.15 20.472 11.896 8.576 7.47 13.556 18.535 4.98 10.79 5.533 24.069h-34.581q-.554-13.003-9.13-20.196-8.3-7.47-22.132-7.47-14.385 0-22.962 8.024-8.3 8.023-8.3 22.132v82.44q0 14.11 8.024 22.133 8.3 8.023 23.238 8.023 13.833 0 22.132-7.47 8.576-7.746 9.13-20.472h34.58q-1.383 27.112-19.088 43.157-17.429 15.77-46.754 15.77zM501.374 33.278V3.124H621.44v30.154h-42.604v138.878h42.604v30.155H501.374v-30.155h42.604V33.278Z" style="font-style:normal;font-variant:normal;font-weight:700;font-stretch:normal;font-size:276.64880371px;font-family:'JetBrains Mono';-inkscape-font-specification:'JetBrains Mono, Bold';font-variant-ligatures:normal;font-variant-caps:normal;font-variant-numeric:normal;font-feature-settings:normal;text-align:start;writing-mode:lr-tb;text-anchor:start;fill:#4169e1;stroke-width:7.93867016" transform="scale(.96408 1.03726)"/></g><g aria-label="Pumped Kaniko" style="font-style:normal;font-variant:normal;font-weight:700;font-stretch:normal;font-size:69.33383179px;line-height:1.25;font-family:Ubuntu;-inkscape-font-specification:'Ubuntu, Bold';font-variant-ligatures:normal;font-variant-caps:normal;font-variant-numeric:normal;font-feature-settings:normal;text-align:start;letter-spacing:0;word-spacing:0;writing-mode:lr-tb;text-anchor:start;fill:#6495ed;fill-opacity:1;stroke:none"><path d="M19.968 275.214q10.747 0 16.502 3.814 5.754 3.744 5.754 12.341 0 8.667-5.824 12.55-5.824 3.813-16.64 3.813h-3.397v16.085H5.547v-47.355q3.536-.693 7.488-.97 3.952-.278 6.933-.278zm.693 9.222q-1.178 0-2.357.069-1.11.07-1.941.139v13.866h3.397q5.616 0 8.459-1.525t2.843-5.685q0-2.011-.763-3.328-.693-1.318-2.08-2.08-1.317-.832-3.259-1.11-1.941-.346-4.299-.346zM80.635 322.57q-2.635.762-6.795 1.386-4.16.693-8.736.693-4.645 0-7.765-1.248-3.05-1.248-4.853-3.466-1.803-2.288-2.566-5.408-.762-3.12-.762-6.864v-20.315h10.33v19.067q0 4.992 1.318 7.21 1.317 2.219 4.922 2.219 1.11 0 2.358-.07 1.248-.138 2.218-.277v-28.15h10.331zM110.38 304.473q0-4.992-1.318-7.072-1.248-2.08-4.368-2.08-.97 0-2.01.139-1.04.07-2.011.208v28.15H90.342v-35.222q1.317-.347 3.05-.694 1.803-.416 3.745-.693 2.01-.347 4.09-.485 2.08-.208 4.09-.208 3.953 0 6.38 1.04 2.496.97 4.09 2.357 2.219-1.595 5.062-2.496 2.912-.901 5.338-.901 4.368 0 7.142 1.248 2.842 1.178 4.507 3.397 1.664 2.219 2.288 5.27.624 3.05.624 6.794v20.592h-10.331v-19.344q0-4.992-1.318-7.072-1.248-2.08-4.368-2.08-.832 0-2.357.416-1.456.416-2.427 1.04.486 1.595.624 3.397.139 1.734.139 3.745v19.898h-10.33zM173.473 305.86q0-4.784-2.15-7.627-2.149-2.912-6.378-2.912-1.387 0-2.565.139-1.179.07-1.942.208v18.65q.971.625 2.496 1.04 1.595.417 3.19.417 7.35 0 7.35-9.915zm10.539-.277q0 4.229-1.04 7.696-1.04 3.466-3.05 5.962-2.012 2.496-4.993 3.883-2.981 1.387-6.864 1.387-2.15 0-4.021-.416-1.872-.416-3.606-1.179v13.728h-10.33v-48.048q1.386-.416 3.189-.763 1.803-.416 3.744-.693 2.01-.278 4.021-.416 2.08-.208 3.952-.208 4.507 0 8.043 1.386 3.536 1.318 5.963 3.814 2.426 2.426 3.674 5.962 1.318 3.536 1.318 7.905zM190.252 305.86q0-4.854 1.456-8.459 1.525-3.675 3.952-6.101 2.426-2.427 5.546-3.675 3.19-1.248 6.518-1.248 7.765 0 12.272 4.784 4.507 4.715 4.507 13.936 0 .902-.07 2.01-.069 1.04-.138 1.873H200.86q.347 3.19 2.981 5.061 2.635 1.872 7.072 1.872 2.843 0 5.547-.485 2.773-.555 4.507-1.317l1.386 8.389q-.832.416-2.218.832-1.387.416-3.12.693-1.664.347-3.606.555-1.941.208-3.882.208-4.923 0-8.598-1.456-3.605-1.456-6.032-3.952-2.357-2.565-3.536-6.032-1.11-3.467-1.11-7.488zm24.267-3.952q-.07-1.318-.486-2.566-.346-1.248-1.178-2.218-.763-.97-2.011-1.595-1.179-.624-2.981-.624-1.734 0-2.982.624-1.248.555-2.08 1.525-.832.971-1.317 2.288-.416 1.248-.624 2.566zM241.281 305.305q0 4.784 2.15 7.696t6.378 2.912q1.387 0 2.566-.069 1.178-.139 1.941-.277v-18.79q-.97-.624-2.565-1.04-1.526-.416-3.12-.416-7.35 0-7.35 9.984zm23.366 17.334q-1.387.416-3.19.832-1.802.346-3.813.624-1.941.277-4.021.416-2.01.208-3.883.208-4.507 0-8.043-1.318-3.536-1.317-5.962-3.744-2.427-2.496-3.744-5.962-1.248-3.536-1.248-7.904 0-4.438 1.109-7.974 1.11-3.605 3.19-6.101t5.06-3.814q3.051-1.317 6.934-1.317 2.15 0 3.813.416 1.734.416 3.467 1.179v-16.502l10.33-1.664zM320.045 323.817q-1.457-2.357-3.467-5.061-1.942-2.773-4.299-5.477-2.288-2.774-4.784-5.27-2.496-2.565-4.992-4.506v20.314h-10.816V275.77h10.816v18.165q4.23-4.437 8.459-9.221 4.298-4.853 7.973-8.944h12.827q-4.923 5.824-9.915 11.232-4.923 5.408-10.4 10.885 5.755 4.784 11.094 11.371 5.408 6.587 10.33 14.56zM351.66 316.607q1.526 0 2.913-.07 1.386-.069 2.218-.208v-7.834q-.624-.14-1.872-.278-1.248-.138-2.288-.138-1.456 0-2.773.208-1.248.138-2.219.624-.97.485-1.525 1.317-.555.832-.555 2.08 0 2.427 1.595 3.397 1.664.902 4.507.902zm-.831-30.23q4.576 0 7.626 1.04 3.051 1.04 4.854 2.981 1.872 1.942 2.634 4.715.763 2.773.763 6.17v21.494q-2.219.486-6.17 1.11-3.953.693-9.569.693-3.536 0-6.448-.624-2.843-.624-4.923-2.01-2.08-1.457-3.189-3.745-1.11-2.288-1.11-5.616 0-3.19 1.249-5.408 1.317-2.218 3.466-3.536 2.15-1.317 4.923-1.872 2.774-.624 5.755-.624 2.01 0 3.536.208 1.595.139 2.565.416v-.97q0-2.635-1.594-4.23-1.595-1.595-5.547-1.595-2.635 0-5.2.416-2.566.347-4.438 1.04l-1.317-8.32q.901-.277 2.219-.554 1.386-.347 2.981-.555 1.595-.277 3.328-.416 1.803-.208 3.606-.208zM376.066 288.596q2.635-.763 6.795-1.387 4.16-.693 8.736-.693 4.645 0 7.696 1.248 3.12 1.178 4.923 3.397 1.802 2.219 2.565 5.27.763 3.05.763 6.794v20.592h-10.331v-19.344q0-4.992-1.317-7.072-1.318-2.08-4.923-2.08-1.11 0-2.358.139-1.248.07-2.218.208v28.15h-10.33zM427.234 323.817h-10.33v-36.47h10.33zm.971-47.008q0 2.843-1.872 4.507-1.803 1.594-4.299 1.594-2.496 0-4.368-1.594-1.802-1.664-1.802-4.507t1.802-4.437q1.872-1.664 4.368-1.664 2.496 0 4.299 1.664 1.872 1.594 1.872 4.437zM447.272 300.521q1.525-1.664 3.12-3.467 1.664-1.802 3.19-3.536 1.525-1.802 2.842-3.397 1.387-1.595 2.357-2.773h12.272q-3.674 4.23-7.21 8.112-3.467 3.813-7.627 7.904 2.08 1.872 4.299 4.507 2.218 2.565 4.298 5.338 2.08 2.774 3.814 5.547 1.733 2.773 2.912 5.061h-11.856q-1.11-1.802-2.566-3.952-1.386-2.218-2.981-4.368-1.595-2.218-3.398-4.23-1.733-2.01-3.466-3.396v15.946h-10.33v-52.139l10.33-1.664zM508.701 305.513q0 4.299-1.248 7.904-1.248 3.536-3.605 6.102-2.357 2.496-5.685 3.882-3.26 1.387-7.35 1.387-4.021 0-7.35-1.387-3.258-1.386-5.615-3.882-2.358-2.566-3.675-6.102-1.317-3.605-1.317-7.904 0-4.299 1.317-7.835 1.387-3.536 3.744-6.032 2.427-2.496 5.686-3.882 3.328-1.387 7.21-1.387 3.952 0 7.21 1.387 3.329 1.386 5.686 3.882 2.358 2.496 3.675 6.032 1.317 3.536 1.317 7.835zm-10.538 0q0-4.784-1.942-7.488-1.872-2.773-5.408-2.773-3.536 0-5.477 2.773-1.941 2.704-1.941 7.488 0 4.784 1.94 7.627 1.942 2.773 5.478 2.773 3.536 0 5.408-2.773 1.942-2.843 1.942-7.627z" transform="matrix(1.1245 0 0 1.13037 10.862 -52.543)"/></g><g aria-label="Continuous Integration" style="font-style:normal;font-variant:normal;font-weight:400;font-stretch:normal;font-size:48px;line-height:1.25;font-family:Ubuntu;-inkscape-font-specification:'Ubuntu, Normal';font-variant-ligatures:normal;font-variant-caps:normal;font-variant-numeric:normal;font-feature-settings:normal;text-align:start;letter-spacing:0;word-spacing:0;writing-mode:lr-tb;text-anchor:start;fill:#789;fill-opacity:1;stroke:none"><path d="M66.529 441.921q-3.504 0-6.384-1.152-2.88-1.152-4.944-3.36t-3.216-5.424q-1.104-3.264-1.104-7.44t1.248-7.392q1.296-3.264 3.456-5.472 2.16-2.208 5.04-3.36 2.88-1.152 6.144-1.152 2.064 0 3.696.288 1.68.288 2.88.672 1.248.384 2.016.768t1.056.576l-1.344 3.84q-.432-.288-1.248-.624-.816-.336-1.872-.672-1.008-.336-2.256-.528-1.2-.24-2.448-.24-2.64 0-4.752.912-2.112.912-3.6 2.64-1.488 1.728-2.304 4.224-.768 2.448-.768 5.52 0 2.976.672 5.424.72 2.448 2.112 4.224 1.392 1.728 3.456 2.688 2.112.96 4.896.96 3.216 0 5.328-.672t3.168-1.2l1.2 3.84q-.336.24-1.2.624-.864.336-2.16.672-1.296.336-3.024.576-1.728.24-3.744.24zM103.008 428.721q0 2.976-.864 5.376-.864 2.4-2.448 4.128-1.536 1.728-3.696 2.688-2.16.912-4.704.912-2.544 0-4.704-.912-2.16-.96-3.744-2.688-1.536-1.728-2.4-4.128-.864-2.4-.864-5.376 0-2.928.864-5.328.864-2.448 2.4-4.176 1.584-1.728 3.744-2.64 2.16-.96 4.704-.96 2.544 0 4.704.96 2.16.912 3.696 2.64 1.584 1.728 2.448 4.176.864 2.4.864 5.328zm-4.656 0q0-4.224-1.92-6.672-1.872-2.496-5.136-2.496-3.264 0-5.184 2.496-1.872 2.448-1.872 6.672t1.872 6.72q1.92 2.448 5.184 2.448 3.264 0 5.136-2.448 1.92-2.496 1.92-6.72zM109.296 416.961q1.536-.384 4.08-.816 2.544-.432 5.856-.432 2.976 0 4.944.864 1.968.816 3.12 2.352 1.2 1.488 1.68 3.6t.48 4.656v14.016h-4.464v-13.056q0-2.304-.336-3.936-.288-1.632-1.008-2.64-.72-1.008-1.92-1.44-1.2-.48-2.976-.48-.72 0-1.488.048t-1.488.144q-.672.048-1.248.144-.528.096-.768.144v21.072h-4.464zM141.024 416.241h9.456v3.744h-9.456v11.52q0 1.872.288 3.12.288 1.2.864 1.92.576.672 1.44.96.864.288 2.016.288 2.016 0 3.216-.432 1.248-.48 1.728-.672l.864 3.696q-.672.336-2.352.816-1.68.528-3.84.528-2.544 0-4.224-.624-1.632-.672-2.64-1.968-1.008-1.296-1.44-3.168-.384-1.92-.384-4.416v-22.272l4.464-.768zM160.608 441.201h-4.464v-24.96h4.464zm-2.256-29.472q-1.2 0-2.064-.768-.816-.816-.816-2.16 0-1.344.816-2.112.864-.816 2.064-.816 1.2 0 2.016.816.864.768.864 2.112t-.864 2.16q-.816.768-2.016.768zM168.288 416.961q1.536-.384 4.08-.816 2.544-.432 5.856-.432 2.976 0 4.944.864 1.968.816 3.12 2.352 1.2 1.488 1.68 3.6t.48 4.656v14.016h-4.464v-13.056q0-2.304-.336-3.936-.288-1.632-1.008-2.64-.72-1.008-1.92-1.44-1.2-.48-2.976-.48-.72 0-1.488.048t-1.488.144q-.672.048-1.248.144-.528.096-.768.144v21.072h-4.464zM215.712 440.481q-1.536.384-4.08.816-2.496.432-5.808.432-2.88 0-4.848-.816-1.968-.864-3.168-2.4-1.2-1.536-1.728-3.6-.528-2.112-.528-4.656v-14.016h4.464v13.056q0 4.56 1.44 6.528t4.848 1.968q.72 0 1.488-.048t1.44-.096q.672-.096 1.2-.144.576-.096.816-.192v-21.072h4.464zM245.424 428.721q0 2.976-.864 5.376-.864 2.4-2.448 4.128-1.536 1.728-3.696 2.688-2.16.912-4.704.912-2.544 0-4.704-.912-2.16-.96-3.744-2.688-1.536-1.728-2.4-4.128-.864-2.4-.864-5.376 0-2.928.864-5.328.864-2.448 2.4-4.176 1.584-1.728 3.744-2.64 2.16-.96 4.704-.96 2.544 0 4.704.96 2.16.912 3.696 2.64 1.584 1.728 2.448 4.176.864 2.4.864 5.328zm-4.656 0q0-4.224-1.92-6.672-1.872-2.496-5.136-2.496-3.264 0-5.184 2.496-1.872 2.448-1.872 6.672t1.872 6.72q1.92 2.448 5.184 2.448 3.264 0 5.136-2.448 1.92-2.496 1.92-6.72zM271.584 440.481q-1.536.384-4.08.816-2.496.432-5.808.432-2.88 0-4.848-.816-1.968-.864-3.168-2.4-1.2-1.536-1.728-3.6-.528-2.112-.528-4.656v-14.016h4.464v13.056q0 4.56 1.44 6.528t4.848 1.968q.72 0 1.488-.048t1.44-.096q.672-.096 1.2-.144.576-.096.816-.192v-21.072h4.464zM285.072 437.985q2.736 0 4.032-.72 1.344-.72 1.344-2.304 0-1.632-1.296-2.592-1.296-.96-4.272-2.16-1.44-.576-2.784-1.152-1.296-.624-2.256-1.44-.96-.816-1.536-1.968-.576-1.152-.576-2.832 0-3.312 2.448-5.232 2.448-1.968 6.672-1.968 1.056 0 2.112.144 1.056.096 1.968.288.912.144 1.584.336.72.192 1.104.336l-.816 3.84q-.72-.384-2.256-.768-1.536-.432-3.696-.432-1.872 0-3.264.768-1.392.72-1.392 2.304 0 .816.288 1.44.336.624.96 1.152.672.48 1.632.912.96.432 2.304.912 1.776.672 3.168 1.344 1.392.624 2.352 1.488 1.008.864 1.536 2.112.528 1.2.528 2.976 0 3.456-2.592 5.232-2.544 1.776-7.296 1.776-3.312 0-5.184-.576-1.872-.528-2.544-.816l.816-3.84q.768.288 2.448.864 1.68.576 4.464.576zM312.048 407.937h4.656v33.264h-4.656zM324.672 416.961q1.536-.384 4.08-.816 2.544-.432 5.856-.432 2.976 0 4.944.864 1.968.816 3.12 2.352 1.2 1.488 1.68 3.6t.48 4.656v14.016h-4.464v-13.056q0-2.304-.336-3.936-.288-1.632-1.008-2.64-.72-1.008-1.92-1.44-1.2-.48-2.976-.48-.72 0-1.488.048t-1.488.144q-.672.048-1.248.144-.528.096-.768.144v21.072h-4.464zM356.4 416.241h9.456v3.744H356.4v11.52q0 1.872.288 3.12.288 1.2.864 1.92.576.672 1.44.96.864.288 2.016.288 2.016 0 3.216-.432 1.248-.48 1.728-.672l.864 3.696q-.672.336-2.352.816-1.68.528-3.84.528-2.544 0-4.224-.624-1.632-.672-2.64-1.968-1.008-1.296-1.44-3.168-.384-1.92-.384-4.416v-22.272l4.464-.768zM369.648 428.77q0-3.313.96-5.76.96-2.497 2.544-4.129 1.584-1.632 3.648-2.448 2.064-.816 4.224-.816 5.04 0 7.728 3.168 2.688 3.12 2.688 9.552v.768q0 .432-.048.816h-17.088q.288 3.888 2.256 5.904 1.968 2.016 6.144 2.016 2.352 0 3.936-.384 1.632-.432 2.448-.816l.624 3.744q-.816.432-2.88.912-2.016.48-4.608.48-3.264 0-5.664-.96-2.352-1.008-3.888-2.736-1.536-1.728-2.304-4.08-.72-2.4-.72-5.232zm17.136-2.449q.048-3.024-1.536-4.944-1.536-1.968-4.272-1.968-1.536 0-2.736.624-1.152.576-1.968 1.536-.816.96-1.296 2.208-.432 1.248-.576 2.544zM413.52 438.705q-.576.384-2.256 1.008-1.632.576-3.84.576-2.256 0-4.272-.72-1.968-.72-3.456-2.208-1.488-1.536-2.352-3.792-.864-2.256-.864-5.376 0-2.736.816-4.992.816-2.304 2.352-3.936 1.584-1.68 3.84-2.592 2.256-.96 5.088-.96 3.12 0 5.424.48 2.352.432 3.936.816v22.272q0 5.76-2.976 8.352-2.976 2.592-9.024 2.592-2.352 0-4.464-.384-2.064-.384-3.6-.912l.816-3.888q1.344.528 3.264.912 1.968.432 4.08.432 3.984 0 5.712-1.584 1.776-1.584 1.776-5.04zm-.048-18.528q-.672-.192-1.824-.336-1.104-.192-3.024-.192-3.6 0-5.568 2.352-1.92 2.352-1.92 6.24 0 2.16.528 3.696.576 1.536 1.488 2.544.96 1.008 2.16 1.488 1.248.48 2.544.48 1.776 0 3.264-.48 1.488-.528 2.352-1.2zM434.832 415.713q.576 0 1.296.096.768.048 1.488.192.72.096 1.296.24.624.096.912.192l-.768 3.888q-.528-.192-1.776-.432-1.2-.288-3.12-.288-1.248 0-2.496.288-1.2.24-1.584.336v20.976h-4.464v-23.904q1.584-.576 3.936-1.056 2.352-.528 5.28-.528zM452.592 437.985q1.584 0 2.784-.048 1.248-.096 2.064-.288v-7.44q-.48-.24-1.584-.384-1.056-.192-2.592-.192-1.008 0-2.16.144-1.104.144-2.064.624-.912.432-1.536 1.248-.624.768-.624 2.064 0 2.4 1.536 3.36 1.536.912 4.176.912zm-.384-22.368q2.688 0 4.512.72 1.872.672 2.976 1.968 1.152 1.248 1.632 3.024.48 1.728.48 3.84v15.6q-.576.096-1.632.288-1.008.144-2.304.288-1.296.144-2.832.24-1.488.144-2.976.144-2.112 0-3.888-.432-1.776-.432-3.072-1.344-1.296-.96-2.016-2.496t-.72-3.696q0-2.064.816-3.552.864-1.488 2.304-2.4 1.44-.912 3.36-1.344 1.92-.432 4.032-.432.672 0 1.392.096.72.048 1.344.192.672.096 1.152.192.48.096.672.144v-1.248q0-1.104-.24-2.16-.24-1.104-.864-1.92-.624-.864-1.728-1.344-1.056-.528-2.784-.528-2.208 0-3.888.336-1.632.288-2.448.624l-.528-3.696q.864-.384 2.88-.72 2.016-.384 4.368-.384zM473.376 416.241h9.456v3.744h-9.456v11.52q0 1.872.288 3.12.288 1.2.864 1.92.576.672 1.44.96.864.288 2.016.288 2.016 0 3.216-.432 1.248-.48 1.728-.672l.864 3.696q-.672.336-2.352.816-1.68.528-3.84.528-2.544 0-4.224-.624-1.632-.672-2.64-1.968-1.008-1.296-1.44-3.168-.384-1.92-.384-4.416v-22.272l4.464-.768zM492.96 441.201h-4.464v-24.96h4.464zm-2.256-29.472q-1.2 0-2.064-.768-.816-.816-.816-2.16 0-1.344.816-2.112.864-.816 2.064-.816 1.2 0 2.016.816.864.768.864 2.112t-.864 2.16q-.816.768-2.016.768zM522.671 428.721q0 2.976-.864 5.376-.864 2.4-2.448 4.128-1.536 1.728-3.696 2.688-2.16.912-4.704.912-2.544 0-4.704-.912-2.16-.96-3.744-2.688-1.536-1.728-2.4-4.128-.864-2.4-.864-5.376 0-2.928.864-5.328.864-2.448 2.4-4.176 1.584-1.728 3.744-2.64 2.16-.96 4.704-.96 2.544 0 4.704.96 2.16.912 3.696 2.64 1.584 1.728 2.448 4.176.864 2.4.864 5.328zm-4.656 0q0-4.224-1.92-6.672-1.872-2.496-5.136-2.496-3.264 0-5.184 2.496-1.872 2.448-1.872 6.672t1.872 6.72q1.92 2.448 5.184 2.448 3.264 0 5.136-2.448 1.92-2.496 1.92-6.72zM528.96 416.961q1.535-.384 4.08-.816 2.543-.432 5.855-.432 2.976 0 4.944.864 1.968.816 3.12 2.352 1.2 1.488 1.68 3.6t.48 4.656v14.016h-4.464v-13.056q0-2.304-.336-3.936-.288-1.632-1.008-2.64-.72-1.008-1.92-1.44-1.2-.48-2.976-.48-.72 0-1.488.048t-1.488.144q-.672.048-1.248.144-.528.096-.768.144v21.072h-4.464z"/></g><g aria-label="Container Image" style="font-style:normal;font-variant:normal;font-weight:400;font-stretch:normal;font-size:48px;line-height:1.25;font-family:Ubuntu;-inkscape-font-specification:'Ubuntu, Normal';font-variant-ligatures:normal;font-variant-caps:normal;font-variant-numeric:normal;font-feature-settings:normal;text-align:start;letter-spacing:0;word-spacing:0;writing-mode:lr-tb;text-anchor:start;fill:#789;fill-opacity:1;stroke:none"><path d="M138.696 371.43q-3.504 0-6.384-1.151-2.88-1.152-4.944-3.36t-3.216-5.424q-1.104-3.264-1.104-7.44t1.248-7.392q1.296-3.264 3.456-5.472 2.16-2.208 5.04-3.36 2.88-1.152 6.144-1.152 2.064 0 3.696.288 1.68.288 2.88.672 1.248.384 2.016.768t1.056.576l-1.344 3.84q-.432-.288-1.248-.624-.816-.336-1.872-.672-1.008-.336-2.256-.528-1.2-.24-2.448-.24-2.64 0-4.752.912-2.112.912-3.6 2.64-1.488 1.728-2.304 4.224-.768 2.448-.768 5.52 0 2.976.672 5.424.72 2.448 2.112 4.224 1.392 1.728 3.456 2.688 2.112.96 4.896.96 3.216 0 5.328-.672t3.168-1.2l1.2 3.84q-.336.24-1.2.624-.864.336-2.16.672-1.296.336-3.024.576-1.728.24-3.744.24zM175.176 358.23q0 2.977-.864 5.377t-2.448 4.128q-1.536 1.728-3.696 2.688-2.16.912-4.704.912-2.544 0-4.704-.912-2.16-.96-3.744-2.688-1.536-1.728-2.4-4.128-.864-2.4-.864-5.376 0-2.928.864-5.328.864-2.448 2.4-4.176 1.584-1.728 3.744-2.64 2.16-.96 4.704-.96 2.544 0 4.704.96 2.16.912 3.696 2.64 1.584 1.728 2.448 4.176.864 2.4.864 5.328zm-4.656 0q0-4.223-1.92-6.671-1.872-2.496-5.136-2.496-3.264 0-5.184 2.496-1.872 2.448-1.872 6.672t1.872 6.72q1.92 2.448 5.184 2.448 3.264 0 5.136-2.448 1.92-2.496 1.92-6.72zM181.464 346.47q1.536-.383 4.08-.815 2.544-.432 5.856-.432 2.976 0 4.944.864 1.968.816 3.12 2.352 1.2 1.488 1.68 3.6t.48 4.656v14.016h-4.464v-13.056q0-2.304-.336-3.936-.288-1.632-1.008-2.64-.72-1.008-1.92-1.44-1.2-.48-2.976-.48-.72 0-1.488.048t-1.488.144q-.672.048-1.248.144-.528.096-.768.144v21.072h-4.464zM213.192 345.75h9.456v3.745h-9.456v11.52q0 1.872.288 3.12.288 1.2.864 1.92.576.672 1.44.96.864.288 2.016.288 2.016 0 3.216-.432 1.248-.48 1.728-.672l.864 3.696q-.672.336-2.352.816-1.68.528-3.84.528-2.544 0-4.224-.624-1.632-.672-2.64-1.968-1.008-1.296-1.44-3.168-.384-1.92-.384-4.416V338.79l4.464-.768zM236.76 367.495q1.584 0 2.784-.048 1.248-.096 2.064-.288v-7.44q-.48-.24-1.584-.384-1.056-.192-2.592-.192-1.008 0-2.16.144-1.104.144-2.064.624-.912.432-1.536 1.248-.624.768-.624 2.064 0 2.4 1.536 3.36 1.536.912 4.176.912zm-.384-22.368q2.688 0 4.512.72 1.872.672 2.976 1.968 1.152 1.248 1.632 3.024.48 1.728.48 3.84v15.6q-.576.096-1.632.288-1.008.144-2.304.288-1.296.144-2.832.24-1.488.144-2.976.144-2.112 0-3.888-.432-1.776-.432-3.072-1.344-1.296-.96-2.016-2.496t-.72-3.696q0-2.064.816-3.552.864-1.488 2.304-2.4 1.44-.912 3.36-1.344 1.92-.432 4.032-.432.672 0 1.392.096.72.048 1.344.192.672.096 1.152.192.48.096.672.144v-1.248q0-1.104-.24-2.16-.24-1.104-.864-1.92-.624-.864-1.728-1.344-1.056-.528-2.784-.528-2.208 0-3.888.336-1.632.288-2.448.624l-.528-3.696q.864-.384 2.88-.72 2.016-.384 4.368-.384zM257.832 370.71h-4.464v-24.96h4.464zm-2.256-29.471q-1.2 0-2.064-.768-.816-.816-.816-2.16 0-1.344.816-2.112.864-.816 2.064-.816 1.2 0 2.016.816.864.768.864 2.112t-.864 2.16q-.816.768-2.016.768zM265.512 346.47q1.536-.383 4.08-.815 2.544-.432 5.856-.432 2.976 0 4.944.864 1.968.816 3.12 2.352 1.2 1.488 1.68 3.6t.48 4.656v14.016h-4.464v-13.056q0-2.304-.336-3.936-.288-1.632-1.008-2.64-.72-1.008-1.92-1.44-1.2-.48-2.976-.48-.72 0-1.488.048t-1.488.144q-.672.048-1.248.144-.528.096-.768.144v21.072h-4.464zM291.672 358.279q0-3.312.96-5.76.96-2.496 2.544-4.128 1.584-1.632 3.648-2.448 2.064-.816 4.224-.816 5.04 0 7.728 3.168 2.688 3.12 2.688 9.552v.768q0 .432-.048.816h-17.088q.288 3.888 2.256 5.904 1.968 2.016 6.144 2.016 2.352 0 3.936-.384 1.632-.432 2.448-.816l.624 3.744q-.816.432-2.88.912-2.016.48-4.608.48-3.264 0-5.664-.96-2.352-1.008-3.888-2.736-1.536-1.728-2.304-4.08-.72-2.4-.72-5.232zm17.136-2.448q.048-3.024-1.536-4.944-1.536-1.968-4.272-1.968-1.536 0-2.736.624-1.152.576-1.968 1.536-.816.96-1.296 2.208-.432 1.248-.576 2.544zM329.112 345.223q.576 0 1.296.096.768.048 1.488.192.72.096 1.296.24.624.096.912.192l-.768 3.888q-.528-.192-1.776-.432-1.2-.288-3.12-.288-1.248 0-2.496.288-1.2.24-1.584.336v20.976h-4.464v-23.904q1.584-.576 3.936-1.056 2.352-.528 5.28-.528zM349.8 337.447h4.656v33.264H349.8zM362.424 346.47q1.536-.383 4.032-.815 2.544-.432 5.856-.432 2.4 0 4.032.672 1.632.624 2.736 1.872.336-.24 1.056-.672.72-.432 1.776-.816 1.056-.432 2.352-.72 1.296-.336 2.784-.336 2.88 0 4.704.864 1.824.816 2.832 2.352 1.056 1.536 1.392 3.648.384 2.112.384 4.608v14.016h-4.464v-13.056q0-2.208-.24-3.792-.192-1.584-.816-2.64-.576-1.056-1.632-1.536-1.008-.528-2.64-.528-2.256 0-3.744.624-1.44.576-1.968 1.056.384 1.248.576 2.736.192 1.488.192 3.12v14.016h-4.464v-13.056q0-2.208-.24-3.792-.24-1.584-.864-2.64-.576-1.056-1.632-1.536-1.008-.528-2.592-.528-.672 0-1.44.048-.768.048-1.488.144-.672.048-1.248.144-.576.096-.768.144v21.072h-4.464zM412.2 367.495q1.584 0 2.784-.048 1.248-.096 2.064-.288v-7.44q-.48-.24-1.584-.384-1.056-.192-2.592-.192-1.008 0-2.16.144-1.104.144-2.064.624-.912.432-1.536 1.248-.624.768-.624 2.064 0 2.4 1.536 3.36 1.536.912 4.176.912zm-.384-22.368q2.688 0 4.512.72 1.872.672 2.976 1.968 1.152 1.248 1.632 3.024.48 1.728.48 3.84v15.6q-.576.096-1.632.288-1.008.144-2.304.288-1.296.144-2.832.24-1.488.144-2.976.144-2.112 0-3.888-.432-1.776-.432-3.072-1.344-1.296-.96-2.016-2.496t-.72-3.696q0-2.064.816-3.552.864-1.488 2.304-2.4 1.44-.912 3.36-1.344 1.92-.432 4.032-.432.672 0 1.392.096.72.048 1.344.192.672.096 1.152.192.48.096.672.144v-1.248q0-1.104-.24-2.16-.24-1.104-.864-1.92-.624-.864-1.728-1.344-1.056-.528-2.784-.528-2.208 0-3.888.336-1.632.288-2.448.624l-.528-3.696q.864-.384 2.88-.72 2.016-.384 4.368-.384zM444.456 368.215q-.576.384-2.256 1.008-1.632.576-3.84.576-2.256 0-4.272-.72-1.968-.72-3.456-2.208-1.488-1.536-2.352-3.792-.864-2.256-.864-5.376 0-2.736.816-4.992.816-2.304 2.352-3.936 1.584-1.68 3.84-2.592 2.256-.96 5.088-.96 3.12 0 5.424.48 2.352.432 3.936.816v22.272q0 5.76-2.976 8.352-2.976 2.592-9.024 2.592-2.352 0-4.464-.384-2.064-.384-3.6-.912l.816-3.888q1.344.528 3.264.912 1.968.432 4.08.432 3.984 0 5.712-1.584 1.776-1.584 1.776-5.04zm-.048-18.528q-.672-.192-1.824-.336-1.104-.192-3.024-.192-3.6 0-5.568 2.352-1.92 2.352-1.92 6.24 0 2.16.528 3.696.576 1.536 1.488 2.544.96 1.008 2.16 1.488 1.248.48 2.544.48 1.776 0 3.264-.48 1.488-.528 2.352-1.2zM455.16 358.279q0-3.312.96-5.76.96-2.496 2.544-4.128 1.584-1.632 3.648-2.448 2.064-.816 4.224-.816 5.04 0 7.728 3.168 2.688 3.12 2.688 9.552v.768q0 .432-.048.816h-17.088q.288 3.888 2.256 5.904 1.968 2.016 6.144 2.016 2.352 0 3.936-.384 1.632-.432 2.448-.816l.624 3.744q-.816.432-2.88.912-2.016.48-4.608.48-3.264 0-5.664-.96-2.352-1.008-3.888-2.736-1.536-1.728-2.304-4.08-.72-2.4-.72-5.232zm17.136-2.448q.048-3.024-1.536-4.944-1.536-1.968-4.272-1.968-1.536 0-2.736.624-1.152.576-1.968 1.536-.816.96-1.296 2.208-.432 1.248-.576 2.544z"/></g><g aria-label="for" style="font-style:normal;font-variant:normal;font-weight:400;font-stretch:normal;font-size:31.1186676px;line-height:1.25;font-family:Ubuntu;-inkscape-font-specification:'Ubuntu, Normal';font-variant-ligatures:normal;font-variant-caps:normal;font-variant-numeric:normal;font-feature-settings:normal;text-align:start;letter-spacing:0;word-spacing:0;writing-mode:lr-tb;text-anchor:start;fill:#b0c4de;fill-opacity:1;stroke:none;stroke-width:.77796936"><path d="M277.927 390.26q1.276 0 2.178.187.934.187 1.307.342l-.53 2.49q-.372-.187-1.057-.342-.685-.187-1.68-.187-2.023 0-2.832 1.12-.81 1.09-.81 2.956v1.4h6.224v2.428h-6.223v13.755h-2.894v-17.645q0-3.112 1.524-4.792 1.525-1.712 4.793-1.712zM297.905 406.318q0 1.929-.56 3.485-.56 1.556-1.587 2.676-.996 1.12-2.396 1.743-1.4.591-3.05.591t-3.05-.591q-1.4-.623-2.427-1.743-.996-1.12-1.556-2.676t-.56-3.485q0-1.899.56-3.454.56-1.588 1.556-2.708 1.027-1.12 2.427-1.711 1.4-.623 3.05-.623t3.05.623q1.4.59 2.396 1.711 1.027 1.12 1.587 2.708.56 1.555.56 3.454zm-3.019 0q0-2.739-1.244-4.326-1.214-1.618-3.33-1.618t-3.36 1.618q-1.215 1.587-1.215 4.326 0 2.738 1.214 4.356 1.245 1.587 3.36 1.587 2.117 0 3.33-1.587 1.245-1.618 1.245-4.356zM307.956 397.885q.374 0 .84.062.498.03.965.124.467.062.84.156.405.062.591.124l-.497 2.52q-.343-.124-1.152-.28-.778-.186-2.023-.186-.809 0-1.618.187-.778.155-1.027.218v13.599h-2.894V398.91q1.027-.373 2.552-.684 1.525-.343 3.423-.343z" style="font-style:normal;font-variant:normal;font-weight:400;font-stretch:normal;font-size:31.1186676px;font-family:Ubuntu;-inkscape-font-specification:'Ubuntu, Normal';font-variant-ligatures:normal;font-variant-caps:normal;font-variant-numeric:normal;font-feature-settings:normal;text-align:start;writing-mode:lr-tb;text-anchor:start;fill:#b0c4de;stroke-width:.77796936" transform="scale(1.0295 .97134)"/></g><path style="fill:#708090;fill-rule:nonzero;stroke:#708090;stroke-width:2;stroke-linecap:butt;stroke-linejoin:miter;stroke-miterlimit:4;stroke-dasharray:none;stroke-opacity:1" d="M0 229.163h600"/><g style="fill:#789"><path style="fill:#789" d="M338.467 158.108a129.205 129.205 0 0 1 15.407 15.405 7.983 7.983 0 0 0 6.119 2.842 8 8 0 0 0 6.111-13.158 145.158 145.158 0 0 0-17.322-17.319 8 8 0 1 0-10.315 12.23z" transform="matrix(.21807 0 0 .18989 702.43 36.065)"/><path style="fill:#789" d="M383.08 188.231a8.01 8.01 0 0 0-1.5-1.984 8.001 8.001 0 0 0-11.807-5.176l-28.916 16.695a23.887 23.887 0 0 0-9.37-4.949 23.82 23.82 0 0 0-18.211 2.397l-25.492 14.718a56.052 56.052 0 0 0-7.79-4.52V176c0-10.429-6.689-19.321-16-22.624v-25.123c18.274 1.146 36.192 6.198 52.256 14.786a8 8 0 1 0 7.544-14.109c-20.716-11.075-44.161-16.93-67.8-16.93-52.905 0-99.23 28.683-124.261 71.311-.159.22-.308.45-.446.689-.102.177-.189.358-.276.539-12.095 21.071-19.017 45.473-19.017 71.461 0 30.689 9.524 59.983 27.542 84.714a7.99 7.99 0 0 0 6.472 3.29 8 8 0 0 0 6.46-12.712 131.136 131.136 0 0 1-3.117-4.484l21.78-12.574a23.885 23.885 0 0 0 9.37 4.948 23.846 23.846 0 0 0 18.211-2.398l25.492-14.718a56.052 56.052 0 0 0 7.79 4.52V336c0 10.429 6.689 19.321 16 22.624v25.121c-27.315-1.715-53.505-12.164-74.486-29.863a7.998 7.998 0 0 0-11.273.956 7.998 7.998 0 0 0 .956 11.272c25.904 21.854 58.863 33.89 92.803 33.89 52.99 0 99.38-28.775 124.383-71.517.109-.161.226-.313.325-.483.104-.18.193-.364.281-.549 12.091-21.068 19.011-45.467 19.011-71.451-.001-23.626-5.85-47.06-16.914-67.769zm-61.805 20.84a7.94 7.94 0 0 1 6.07-.799 7.95 7.95 0 0 1 4.858 3.728c2.206 3.82.892 8.723-2.928 10.929l-21.295 12.294a56.016 56.016 0 0 0-8.021-13.845zm-13.295 67.706 21.295 12.294c3.82 2.206 5.134 7.108 2.928 10.929a7.947 7.947 0 0 1-4.858 3.728 7.94 7.94 0 0 1-6.07-.799l-21.316-12.307a56.016 56.016 0 0 0 8.021-13.845zM255.993 168c4.411 0 8 3.589 8 8v24.581a56.287 56.287 0 0 0-8-.581 56.14 56.14 0 0 0-8 .581V176c0-4.411 3.588-8 8-8zm-8-39.743v25.119c-9.311 3.303-16 12.195-16 22.624v29.414a56.052 56.052 0 0 0-7.79 4.52l-25.492-14.719a23.835 23.835 0 0 0-18.211-2.396 23.885 23.885 0 0 0-9.37 4.948l-21.732-12.546c21.571-32.38 57.485-54.415 98.595-56.964zm-84.464 161.531a23.902 23.902 0 0 0-.423 10.603l-21.769 12.568c-8.764-17.574-13.344-36.927-13.344-56.959 0-20.443 4.825-39.777 13.384-56.937l21.729 12.545c-.65 3.478-.52 7.084.423 10.603a23.839 23.839 0 0 0 11.182 14.572l25.479 14.71a56.412 56.412 0 0 0-.197 4.505c0 1.518.078 3.018.197 4.505l-25.479 14.709c-5.552 3.209-9.523 8.384-11.182 14.576zm27.182 13.14c-3.821 2.206-8.723.892-10.928-2.928-2.206-3.82-.892-8.723 2.928-10.929l21.294-12.294a56.016 56.016 0 0 0 8.021 13.845zm13.294-67.705-21.294-12.295c-3.82-2.205-5.134-7.107-2.928-10.928 2.205-3.819 7.108-5.132 10.928-2.929l21.316 12.307a55.988 55.988 0 0 0-8.022 13.845zM215.993 256c0-22.056 17.944-40 40-40s40 17.944 40 40-17.944 40-40 40-40-17.944-40-40zm40 88c-4.411 0-8-3.589-8-8v-24.581c2.614.375 5.283.581 8 .581a56.14 56.14 0 0 0 8-.581V336c0 4.411-3.589 8-8 8zm8 39.743v-25.119c9.311-3.303 16-12.195 16-22.624v-29.414a56.052 56.052 0 0 0 7.79-4.52l25.492 14.718a23.846 23.846 0 0 0 18.211 2.398 23.874 23.874 0 0 0 9.37-4.949l21.731 12.547c-21.571 32.379-57.485 54.414-98.594 56.963zm106.615-70.807-21.741-12.552c1.796-9.715-2.561-19.954-11.593-25.168l-25.479-14.71c.119-1.488.197-2.987.197-4.505 0-1.518-.078-3.018-.197-4.505l25.479-14.71c9.032-5.214 13.388-15.453 11.593-25.168l21.781-12.575c8.738 17.577 13.344 37.188 13.344 56.959.001 20.441-4.825 39.775-13.384 56.934z" transform="matrix(.21807 0 0 .18989 702.43 36.065)"/><path style="fill:#6495ed" d="m468.91 351.216-41.569-24a23.915 23.915 0 0 0-9.09-3.047c8.846-20.977 13.741-44.011 13.741-68.168 0-24.158-4.896-47.194-13.742-68.171a23.956 23.956 0 0 0 9.091-3.045l41.569-23.999a23.844 23.844 0 0 0 11.182-14.573 23.846 23.846 0 0 0-2.397-18.212c-6.617-11.461-21.325-15.403-32.785-8.784l-41.569 24a23.847 23.847 0 0 0-7.223 6.421c-27.961-36.747-70.015-62.214-118.037-68.254a23.86 23.86 0 0 0 1.912-9.383V24c0-13.233-10.766-24-24-24s-24 10.767-24 24v48c0 3.328.682 6.499 1.912 9.383-48.02 6.039-90.074 31.506-118.035 68.251a23.923 23.923 0 0 0-7.225-6.418l-41.569-24c-5.551-3.206-12.019-4.06-18.211-2.397a23.84 23.84 0 0 0-14.573 11.182c-6.617 11.461-2.676 26.168 8.785 32.784l41.569 24.001a23.853 23.853 0 0 0 9.095 3.033c-8.849 20.98-13.747 44.02-13.747 68.182 0 24.161 4.897 47.199 13.745 68.178a23.875 23.875 0 0 0-9.094 3.038l-41.569 24c-11.46 6.616-15.401 21.323-8.785 32.784 3.205 5.552 8.381 9.522 14.573 11.182a23.856 23.856 0 0 0 18.211-2.398l41.569-23.999a23.94 23.94 0 0 0 7.225-6.419c27.961 36.745 70.015 62.212 118.035 68.251a23.86 23.86 0 0 0-1.912 9.383v48c0 13.233 10.766 24 24 24s24-10.767 24-24v-48a23.86 23.86 0 0 0-1.912-9.383c48.022-6.04 90.076-31.507 118.037-68.254a23.86 23.86 0 0 0 7.223 6.421l41.569 24.001a23.849 23.849 0 0 0 11.96 3.21c8.3 0 16.385-4.305 20.825-11.995 3.205-5.552 4.057-12.02 2.397-18.212-1.66-6.192-5.629-11.368-11.181-14.573zm-57.569-194.145 41.569-23.999a7.949 7.949 0 0 1 6.071-.8 7.948 7.948 0 0 1 4.857 3.728 7.949 7.949 0 0 1 .799 6.07 7.945 7.945 0 0 1-3.727 4.858l-41.569 24a7.963 7.963 0 0 1-6.07.799 7.95 7.95 0 0 1-4.858-3.728c-2.206-3.819-.892-8.722 2.928-10.928zM247.993 24c0-4.411 3.589-8 8-8s8 3.589 8 8v48c0 4.411-3.589 8-8 8s-8-3.589-8-8zM92.644 170.929l-41.569-24c-3.82-2.206-5.134-7.108-2.928-10.929a7.947 7.947 0 0 1 4.858-3.728 7.954 7.954 0 0 1 6.07.799l41.569 24.001a7.94 7.94 0 0 1 3.727 4.857 7.944 7.944 0 0 1-.799 6.07 7.954 7.954 0 0 1-4.857 3.728 7.946 7.946 0 0 1-6.071-.798zm11.727 179.141a7.945 7.945 0 0 1-3.727 4.858l-41.569 24a7.963 7.963 0 0 1-6.07.799 7.95 7.95 0 0 1-4.858-3.728c-2.206-3.82-.892-8.723 2.928-10.929l41.569-23.999a7.949 7.949 0 0 1 6.071-.8 7.948 7.948 0 0 1 4.857 3.728 7.951 7.951 0 0 1 .799 6.071zM263.993 488c0 4.411-3.589 8-8 8s-8-3.589-8-8v-48c0-4.411 3.589-8 8-8s8 3.589 8 8zm-8-72c-88.224 0-160-71.775-160-160s71.776-160 160-160 160 71.775 160 160-71.776 160-160 160zm207.846-40a7.948 7.948 0 0 1-4.857 3.728 7.942 7.942 0 0 1-6.071-.799l-41.569-24c-3.82-2.206-5.134-7.108-2.928-10.929a7.947 7.947 0 0 1 4.858-3.728 7.954 7.954 0 0 1 6.07.799l41.569 24.001a7.94 7.94 0 0 1 3.727 4.857 7.95 7.95 0 0 1-.799 6.071z" transform="matrix(.21807 0 0 .18989 702.43 36.065)"/></g><g aria-label="PK" style="font-style:normal;font-variant:normal;font-weight:700;font-stretch:normal;font-size:41.69971848px;line-height:1.25;font-family:'JetBrains Mono';-inkscape-font-specification:'JetBrains Mono, Bold';font-variant-ligatures:normal;font-variant-caps:normal;font-variant-numeric:normal;font-feature-settings:normal;text-align:start;letter-spacing:0;word-spacing:0;writing-mode:lr-tb;text-anchor:start;fill:#4169e1;fill-opacity:1;stroke:none;stroke-width:1.19660842"><path d="M743.22-15.156q2.252 0 4.086.668 1.877.625 3.17 1.834 1.292 1.168 2.001 2.878.71 1.668.71 3.753 0 2.043-.71 3.753-.709 1.668-2.043 2.877-1.293 1.168-3.128 1.835-1.834.625-4.086.625h-5.17v11.801h-5.213v-30.024zm-5.17 13.803h5.17q2.168 0 3.42-1.25 1.25-1.294 1.25-3.42 0-2.127-1.25-3.42-1.252-1.292-3.42-1.292h-5.17zM763.152-15.156v12.177h3.837l5.754-12.177h5.796L771.576-.769l7.297 15.637h-5.88L766.99 1.733h-3.837v13.135h-5.254v-30.024z" style="font-style:normal;font-variant:normal;font-weight:700;font-stretch:normal;font-size:41.69971848px;font-family:'JetBrains Mono';-inkscape-font-specification:'JetBrains Mono, Bold';font-variant-ligatures:normal;font-variant-caps:normal;font-variant-numeric:normal;font-feature-settings:normal;text-align:start;writing-mode:lr-tb;text-anchor:start;fill:#4169e1;stroke-width:1.19660842" transform="matrix(.9923 .1814 -.17826 .97517 -24.522 -.302)"/></g><g aria-label="CI" style="font-style:normal;font-variant:normal;font-weight:700;font-stretch:normal;font-size:41.69971848px;line-height:1.25;font-family:'JetBrains Mono';-inkscape-font-specification:'JetBrains Mono, Bold';font-variant-ligatures:normal;font-variant-caps:normal;font-variant-numeric:normal;font-feature-settings:normal;text-align:start;letter-spacing:0;word-spacing:0;writing-mode:lr-tb;text-anchor:start;fill:#4169e1;fill-opacity:1;stroke:none;stroke-width:1.19660842"><path d="M754.14 306.635q-2.252 0-4.087-.626-1.834-.667-3.127-1.876-1.293-1.21-2.002-2.92-.709-1.71-.709-3.794v-12.427q0-2.085.71-3.794.708-1.71 2-2.92 1.294-1.209 3.128-1.834 1.835-.667 4.087-.667 2.21 0 3.961.625 1.793.626 3.086 1.793 1.293 1.126 2.043 2.794.751 1.627.834 3.628h-5.212q-.083-1.96-1.376-3.044-1.251-1.126-3.336-1.126-2.168 0-3.461 1.21-1.251 1.209-1.251 3.335v12.427q0 2.127 1.21 3.336 1.25 1.21 3.502 1.21 2.085 0 3.336-1.127 1.293-1.167 1.376-3.085h5.212q-.208 4.086-2.877 6.505-2.627 2.377-7.047 2.377zM769.902 280.739v-4.545H788v4.545h-6.422v20.933H788v4.546h-18.098v-4.546h6.422V280.74z" style="font-style:normal;font-variant:normal;font-weight:700;font-stretch:normal;font-size:41.69971848px;font-family:'JetBrains Mono';-inkscape-font-specification:'JetBrains Mono, Bold';font-variant-ligatures:normal;font-variant-caps:normal;font-variant-numeric:normal;font-feature-settings:normal;text-align:start;writing-mode:lr-tb;text-anchor:start;fill:#4169e1;stroke-width:1.19660842" transform="matrix(.99055 -.19074 .18745 .97344 -24.522 -.302)"/></g></svg>