<svg xmlns="http://www.w3.org/2000/svg" viewBox="0 0 29.565 30.597" height="115.643" width="111.741"><g style="fill:#789"><path style="fill:#789" d="M338.467 158.108a129.205 129.205 0 0 1 15.407 15.405 7.983 7.983 0 0 0 6.119 2.842 8 8 0 0 0 6.111-13.158 145.158 145.158 0 0 0-17.322-17.319 8 8 0 1 0-10.315 12.23z" transform="matrix(.0577 0 0 .05024 .012 0)"/><path style="fill:#789" d="M383.08 188.231a8.01 8.01 0 0 0-1.5-1.984 8.001 8.001 0 0 0-11.807-5.176l-28.916 16.695a23.887 23.887 0 0 0-9.37-4.949 23.82 23.82 0 0 0-18.211 2.397l-25.492 14.718a56.052 56.052 0 0 0-7.79-4.52V176c0-10.429-6.689-19.321-16-22.624v-25.123c18.274 1.146 36.192 6.198 52.256 14.786a8 8 0 1 0 7.544-14.109c-20.716-11.075-44.161-16.93-67.8-16.93-52.905 0-99.23 28.683-124.261 71.311-.159.22-.308.45-.446.689-.102.177-.189.358-.276.539-12.095 21.071-19.017 45.473-19.017 71.461 0 30.689 9.524 59.983 27.542 84.714a7.99 7.99 0 0 0 6.472 3.29 8 8 0 0 0 6.46-12.712 131.136 131.136 0 0 1-3.117-4.484l21.78-12.574a23.885 23.885 0 0 0 9.37 4.948 23.846 23.846 0 0 0 18.211-2.398l25.492-14.718a56.052 56.052 0 0 0 7.79 4.52V336c0 10.429 6.689 19.321 16 22.624v25.121c-27.315-1.715-53.505-12.164-74.486-29.863a7.998 7.998 0 0 0-11.273.956 7.998 7.998 0 0 0 .956 11.272c25.904 21.854 58.863 33.89 92.803 33.89 52.99 0 99.38-28.775 124.383-71.517.109-.161.226-.313.325-.483.104-.18.193-.364.281-.549 12.091-21.068 19.011-45.467 19.011-71.451-.001-23.626-5.85-47.06-16.914-67.769zm-61.805 20.84a7.94 7.94 0 0 1 6.07-.799 7.95 7.95 0 0 1 4.858 3.728c2.206 3.82.892 8.723-2.928 10.929l-21.295 12.294a56.016 56.016 0 0 0-8.021-13.845zm-13.295 67.706 21.295 12.294c3.82 2.206 5.134 7.108 2.928 10.929a7.947 7.947 0 0 1-4.858 3.728 7.94 7.94 0 0 1-6.07-.799l-21.316-12.307a56.016 56.016 0 0 0 8.021-13.845zM255.993 168c4.411 0 8 3.589 8 8v24.581a56.287 56.287 0 0 0-8-.581 56.14 56.14 0 0 0-8 .581V176c0-4.411 3.588-8 8-8zm-8-39.743v25.119c-9.311 3.303-16 12.195-16 22.624v29.414a56.052 56.052 0 0 0-7.79 4.52l-25.492-14.719a23.835 23.835 0 0 0-18.211-2.396 23.885 23.885 0 0 0-9.37 4.948l-21.732-12.546c21.571-32.38 57.485-54.415 98.595-56.964zm-84.464 161.531a23.902 23.902 0 0 0-.423 10.603l-21.769 12.568c-8.764-17.574-13.344-36.927-13.344-56.959 0-20.443 4.825-39.777 13.384-56.937l21.729 12.545c-.65 3.478-.52 7.084.423 10.603a23.839 23.839 0 0 0 11.182 14.572l25.479 14.71a56.412 56.412 0 0 0-.197 4.505c0 1.518.078 3.018.197 4.505l-25.479 14.709c-5.552 3.209-9.523 8.384-11.182 14.576zm27.182 13.14c-3.821 2.206-8.723.892-10.928-2.928-2.206-3.82-.892-8.723 2.928-10.929l21.294-12.294a56.016 56.016 0 0 0 8.021 13.845zm13.294-67.705-21.294-12.295c-3.82-2.205-5.134-7.107-2.928-10.928 2.205-3.819 7.108-5.132 10.928-2.929l21.316 12.307a55.988 55.988 0 0 0-8.022 13.845zM215.993 256c0-22.056 17.944-40 40-40s40 17.944 40 40-17.944 40-40 40-40-17.944-40-40zm40 88c-4.411 0-8-3.589-8-8v-24.581c2.614.375 5.283.581 8 .581a56.14 56.14 0 0 0 8-.581V336c0 4.411-3.589 8-8 8zm8 39.743v-25.119c9.311-3.303 16-12.195 16-22.624v-29.414a56.052 56.052 0 0 0 7.79-4.52l25.492 14.718a23.846 23.846 0 0 0 18.211 2.398 23.874 23.874 0 0 0 9.37-4.949l21.731 12.547c-21.571 32.379-57.485 54.414-98.594 56.963zm106.615-70.807-21.741-12.552c1.796-9.715-2.561-19.954-11.593-25.168l-25.479-14.71c.119-1.488.197-2.987.197-4.505 0-1.518-.078-3.018-.197-4.505l25.479-14.71c9.032-5.214 13.388-15.453 11.593-25.168l21.781-12.575c8.738 17.577 13.344 37.188 13.344 56.959.001 20.441-4.825 39.775-13.384 56.934z" transform="matrix(.0577 0 0 .05024 .012 0)"/><path style="fill:#6495ed" d="m468.91 351.216-41.569-24a23.915 23.915 0 0 0-9.09-3.047c8.846-20.977 13.741-44.011 13.741-68.168 0-24.158-4.896-47.194-13.742-68.171a23.956 23.956 0 0 0 9.091-3.045l41.569-23.999a23.844 23.844 0 0 0 11.182-14.573 23.846 23.846 0 0 0-2.397-18.212c-6.617-11.461-21.325-15.403-32.785-8.784l-41.569 24a23.847 23.847 0 0 0-7.223 6.421c-27.961-36.747-70.015-62.214-118.037-68.254a23.86 23.86 0 0 0 1.912-9.383V24c0-13.233-10.766-24-24-24s-24 10.767-24 24v48c0 3.328.682 6.499 1.912 9.383-48.02 6.039-90.074 31.506-118.035 68.251a23.923 23.923 0 0 0-7.225-6.418l-41.569-24c-5.551-3.206-12.019-4.06-18.211-2.397a23.84 23.84 0 0 0-14.573 11.182c-6.617 11.461-2.676 26.168 8.785 32.784l41.569 24.001a23.853 23.853 0 0 0 9.095 3.033c-8.849 20.98-13.747 44.02-13.747 68.182 0 24.161 4.897 47.199 13.745 68.178a23.875 23.875 0 0 0-9.094 3.038l-41.569 24c-11.46 6.616-15.401 21.323-8.785 32.784 3.205 5.552 8.381 9.522 14.573 11.182a23.856 23.856 0 0 0 18.211-2.398l41.569-23.999a23.94 23.94 0 0 0 7.225-6.419c27.961 36.745 70.015 62.212 118.035 68.251a23.86 23.86 0 0 0-1.912 9.383v48c0 13.233 10.766 24 24 24s24-10.767 24-24v-48a23.86 23.86 0 0 0-1.912-9.383c48.022-6.04 90.076-31.507 118.037-68.254a23.86 23.86 0 0 0 7.223 6.421l41.569 24.001a23.849 23.849 0 0 0 11.96 3.21c8.3 0 16.385-4.305 20.825-11.995 3.205-5.552 4.057-12.02 2.397-18.212-1.66-6.192-5.629-11.368-11.181-14.573zm-57.569-194.145 41.569-23.999a7.949 7.949 0 0 1 6.071-.8 7.948 7.948 0 0 1 4.857 3.728 7.949 7.949 0 0 1 .799 6.07 7.945 7.945 0 0 1-3.727 4.858l-41.569 24a7.963 7.963 0 0 1-6.07.799 7.95 7.95 0 0 1-4.858-3.728c-2.206-3.819-.892-8.722 2.928-10.928zM247.993 24c0-4.411 3.589-8 8-8s8 3.589 8 8v48c0 4.411-3.589 8-8 8s-8-3.589-8-8zM92.644 170.929l-41.569-24c-3.82-2.206-5.134-7.108-2.928-10.929a7.947 7.947 0 0 1 4.858-3.728 7.954 7.954 0 0 1 6.07.799l41.569 24.001a7.94 7.94 0 0 1 3.727 4.857 7.944 7.944 0 0 1-.799 6.07 7.954 7.954 0 0 1-4.857 3.728 7.946 7.946 0 0 1-6.071-.798zm11.727 179.141a7.945 7.945 0 0 1-3.727 4.858l-41.569 24a7.963 7.963 0 0 1-6.07.799 7.95 7.95 0 0 1-4.858-3.728c-2.206-3.82-.892-8.723 2.928-10.929l41.569-23.999a7.949 7.949 0 0 1 6.071-.8 7.948 7.948 0 0 1 4.857 3.728 7.951 7.951 0 0 1 .799 6.071zM263.993 488c0 4.411-3.589 8-8 8s-8-3.589-8-8v-48c0-4.411 3.589-8 8-8s8 3.589 8 8zm-8-72c-88.224 0-160-71.775-160-160s71.776-160 160-160 160 71.775 160 160-71.776 160-160 160zm207.846-40a7.948 7.948 0 0 1-4.857 3.728 7.942 7.942 0 0 1-6.071-.799l-41.569-24c-3.82-2.206-5.134-7.108-2.928-10.929a7.947 7.947 0 0 1 4.858-3.728 7.954 7.954 0 0 1 6.07.799l41.569 24.001a7.94 7.94 0 0 1 3.727 4.857 7.95 7.95 0 0 1-.799 6.071z" transform="matrix(.0577 0 0 .05024 .012 0)"/></g><path transform="matrix(1.00873 .00638 -.00627 .9913 0 0)" d="M2.938 22.746q.596 0 1.081.176.497.166.839.486.342.309.53.761.187.441.187.993 0 .54-.188.993-.187.441-.54.761-.342.31-.828.486-.485.165-1.081.165H1.57v3.123H.19v-7.944zM1.57 26.398h1.368q.574 0 .905-.331.33-.342.33-.905t-.33-.905q-.331-.342-.905-.342H1.57ZM8.212 22.746v3.221h1.015l1.522-3.221h1.534l-1.843 3.806 1.931 4.138h-1.556l-1.588-3.476H8.212v3.476h-1.39v-7.944z" style="font-style:normal;font-variant:normal;font-weight:700;font-stretch:normal;font-size:11.03305054px;line-height:1.25;font-family:'JetBrains Mono';-inkscape-font-specification:'JetBrains Mono, Bold';font-variant-ligatures:normal;font-variant-caps:normal;font-variant-numeric:normal;font-feature-settings:normal;text-align:start;letter-spacing:0;word-spacing:0;writing-mode:lr-tb;text-anchor:start;fill:#4169e1;fill-opacity:1;stroke:none;stroke-width:.31660265"/><g aria-label="CI" style="font-style:normal;font-variant:normal;font-weight:700;font-stretch:normal;font-size:11.03305054px;line-height:1.25;font-family:'JetBrains Mono';-inkscape-font-specification:'JetBrains Mono, Bold';font-variant-ligatures:normal;font-variant-caps:normal;font-variant-numeric:normal;font-feature-settings:normal;text-align:start;letter-spacing:0;word-spacing:0;writing-mode:lr-tb;text-anchor:start;fill:#4169e1;fill-opacity:1;stroke:none;stroke-width:.31660265"><path d="M20.063 31.034q-.596 0-1.081-.165-.486-.177-.828-.497-.342-.32-.53-.772-.187-.452-.187-1.004v-3.288q0-.552.188-1.004.187-.452.53-.772.341-.32.827-.486.485-.176 1.08-.176.586 0 1.049.165.474.166.816.475.342.298.541.739.199.43.22.96H21.31q-.022-.519-.364-.806-.331-.297-.883-.297-.574 0-.916.32-.33.32-.33.882v3.288q0 .563.32.883.33.32.926.32.552 0 .883-.298.342-.31.364-.817h1.379q-.055 1.082-.762 1.721-.695.63-1.864.63zM24.233 24.183V22.98h4.789v1.203h-1.7v5.538h1.7v1.203h-4.789v-1.203h1.7v-5.538z" style="font-style:normal;font-variant:normal;font-weight:700;font-stretch:normal;font-size:11.03305054px;font-family:'JetBrains Mono';-inkscape-font-specification:'JetBrains Mono, Bold';font-variant-ligatures:normal;font-variant-caps:normal;font-variant-numeric:normal;font-feature-settings:normal;text-align:start;writing-mode:lr-tb;text-anchor:start;fill:#4169e1;stroke-width:.31660265" transform="matrix(1.0087 -.00955 .00939 .99128 0 0)"/></g></svg>